<svg xmlns="http://www.w3.org/2000/svg" width="14" height="14" viewBox="0 0 14 14">
  <path fill="#C5CFE0" fill-rule="evenodd" d="M9,4.5 C11.4852814,4.5 13.5,6.51471863 13.5,9 C13.5,11.4852814 11.4852814,13.5 9,13.5 C6.51471863,13.5 4.5,11.4852814 4.5,9 C4.5,6.51471863 6.51471863,4.5 9,4.5 Z M3,5 L3,10.5 C3,11.2796961 3.59488808,11.9204487 4.35553999,11.9931334 L4.5,12 L5.00053506,12.0011995 C5.28506597,12.379768 5.62209487,12.7166302 6.00081101,13.0009752 L4.5,13 C3.1745166,13 2.08996133,11.9684641 2.00531768,10.6643757 L2,10.5 L2,5 L3,5 Z M9,5.5 C7.06700338,5.5 5.5,7.06700338 5.5,9 C5.5,10.9329966 7.06700338,12.5 9,12.5 C10.9329966,12.5 12.5,10.9329966 12.5,9 C12.5,7.06700338 10.9329966,5.5 9,5.5 Z M7.55842712,6.85132034 L8.97264069,8.26553391 L10.3868542,6.85132034 C10.5821164,6.6560582 10.8986989,6.6560582 11.093961,6.85132034 C11.2892232,7.04658249 11.2892232,7.36316498 11.093961,7.55842712 L9.67974747,8.97264069 L11.093961,10.3868542 C11.2892232,10.5821164 11.2892232,10.8986989 11.093961,11.093961 C10.8986989,11.2892232 10.5821164,11.2892232 10.3868542,11.093961 L8.97264069,9.67974747 L7.55842712,11.093961 C7.36316498,11.2892232 7.04658249,11.2892232 6.85132034,11.093961 C6.6560582,10.8986989 6.6560582,10.5821164 6.85132034,10.3868542 L8.26553391,8.97264069 L6.85132034,7.55842712 C6.6560582,7.36316498 6.6560582,7.04658249 6.85132034,6.85132034 C7.04658249,6.6560582 7.36316498,6.6560582 7.55842712,6.85132034 Z M11.5,3 C11.7761424,3 12,3.22385763 12,3.5 C12,3.77614237 11.7761424,4 11.5,4 L1.5,4 C1.22385763,4 1,3.77614237 1,3.5 C1,3.22385763 1.22385763,3 1.5,3 L11.5,3 Z M7.5,1 C7.77614237,1 8,1.22385763 8,1.5 C8,1.77614237 7.77614237,2 7.5,2 L5.5,2 C5.22385763,2 5,1.77614237 5,1.5 C5,1.22385763 5.22385763,1 5.5,1 L7.5,1 Z"/>
</svg>
