<svg xmlns="http://www.w3.org/2000/svg" width="14" height="14" viewBox="0 0 14 14">
  <path fill="#C5CFE0" fill-rule="evenodd" d="M7.38443607,7.68029872 C7.54138375,7.86902599 7.53592243,8.1390845 7.38365333,8.32077558 L7.31970128,8.38443607 C7.13097401,8.54138375 6.8609155,8.53592243 6.67922442,8.38365333 L6.61556393,8.31970128 L3.61556393,4.71224552 C3.46903218,4.53604326 3.46320271,4.28702664 3.59034401,4.10574076 L3.65295167,4.03260334 L6.65295167,1.14005909 C6.85174154,0.948389593 7.1682714,0.954161795 7.35994091,1.15295167 C7.5303138,1.32965378 7.54468336,1.59938502 7.40615675,1.7917594 L7.34704833,1.85994091 L5.127,3.99999948 L9,4 C11.3439487,4 13,6.09717393 13,8.5 C13,10.8321547 11.4399309,12.8763724 9.20500917,12.9946031 L9,13 L2,13 C1.72385763,13 1.5,12.7761424 1.5,12.5 C1.5,12.2545401 1.67687516,12.0503916 1.91012437,12.0080557 L2,12 L9,12 C10.7329634,12 12,10.3954627 12,8.5 C12,6.66989807 10.8188387,5.11100367 9.17757719,5.00566982 L9,5 L5.155,4.99999948 L7.38443607,7.68029872 Z"/>
</svg>
