<svg xmlns="http://www.w3.org/2000/svg" width="14" height="14" viewBox="0 0 14 14">
  <path fill="#C5CFE0" fill-rule="evenodd" d="M6.29289322,2 C6.55810971,2 6.81246362,2.10535684 7,2.29289322 L7,2.29289322 L7.707,3 L12,3 C12.5128358,3 12.9355072,3.38604019 12.9932723,3.88337887 L12.9932723,3.88337887 L13,4 L13,11.5 C13,11.7761424 12.7761424,12 12.5,12 L12.5,12 L1.5,12 C1.22385763,12 1,11.7761424 1,11.5 L1,11.5 L1,3 C1,2.44771525 1.44771525,2 2,2 L2,2 Z M6.29289322,3 L2,3 L2,11 L12,11 L12,4 L7.5,4 C7.36739176,4 7.2402148,3.94732158 7.14644661,3.85355339 L7.14644661,3.85355339 L6.29289322,3 Z M4.61005746,5 C5.8645719,5 6.49594785,5.62439816 6.49594785,6.55539816 C6.49594785,7.1013036 6.36493055,7.65629965 5.765,7.84288078 C6.353,7.96888078 6.75278113,8.48211705 6.75278113,9.18211705 C6.75278113,10.204117 5.863,10.8304662 4.722,10.8304662 L4.722,10.8304662 L3,10.8304662 L3,10.6784662 L3.01405746,5 Z M11.5924754,5 L11.5924754,6 L10,6 L10,10.5035692 L9,10.5035692 L9,6 L7.48293216,6 L7.48293216,5 L11.5924754,5 Z M4.59453335,8.45364959 L4.01619768,8.45364959 L4.01619768,9.98592441 L4.526,9.98592441 C5.32253335,9.98592441 5.69571713,9.65591402 5.69571713,9.21286373 C5.69571713,8.7311549 5.32253335,8.45364959 4.59453335,8.45364959 L4.59453335,8.45364959 Z M4.526,6.02431492 L4.01619768,6.02431492 L4.01619768,7.54274321 L4.526,7.54274321 C5.254,7.54274321 5.63576021,7.22657935 5.63576021,6.78352906 C5.63576021,6.30182024 5.254,6.02431492 4.526,6.02431492 L4.526,6.02431492 Z"/>
</svg>
