<svg xmlns="http://www.w3.org/2000/svg" width="14" height="14" viewBox="0 0 14 14">
  <path fill="#C5CFE0" fill-rule="evenodd" d="M5.5,1 C5.65737865,1 5.80557281,1.07409708 5.9,1.2 L5.9,1.2 L7.25,3 L11.5,3 C12.2796961,3 12.9204487,3.59488808 12.9931334,4.35553999 L12.9931334,4.35553999 L13,4.5 L13,10.5 C13,11.3284271 12.3284271,12 11.5,12 L11.5,12 L2.5,12 C1.67157288,12 1,11.3284271 1,10.5 L1,10.5 L1,2.5 C1,1.67157288 1.67157288,1 2.5,1 L2.5,1 Z M2,6 L2,10.5 C2,10.7761424 2.22385763,11 2.5,11 L2.5,11 L11.5,11 C11.7761424,11 12,10.7761424 12,10.5 L12,10.5 L12,6 L2,6 Z M2,5 L12,5 L12,4.5 C12,4.22385763 11.7761424,4 11.5,4 L11.5,4 L7,4 C6.84262135,4 6.69442719,3.92590292 6.6,3.8 L6.6,3.8 L5.25,2 L2.5,2 C2.22385763,2 2,2.22385763 2,2.5 L2,2.5 L2,5 Z"/>
</svg>
