<svg xmlns="http://www.w3.org/2000/svg" width="14" height="14" viewBox="0 0 14 14">
  <path fill="#C5CFE0" fill-rule="evenodd" d="M3,5 L3,10.5 C3,11.3284271 3.67157288,12 4.5,12 L4.5,12 L9.5,12 C10.3284271,12 11,11.3284271 11,10.5 L11,10.5 L11,5 L12,5 L12,10.5 C12,11.8807119 10.8807119,13 9.5,13 L9.5,13 L4.5,13 C3.11928813,13 2,11.8807119 2,10.5 L2,10.5 L2,5 L3,5 Z M5.5,5 C5.77614237,5 6,5.22385763 6,5.5 L6,10.5 C6,10.7761424 5.77614237,11 5.5,11 C5.22385763,11 5,10.7761424 5,10.5 L5,5.5 C5,5.22385763 5.22385763,5 5.5,5 Z M8.5,5 C8.77614237,5 9,5.22385763 9,5.5 L9,10.5 C9,10.7761424 8.77614237,11 8.5,11 C8.22385763,11 8,10.7761424 8,10.5 L8,5.5 C8,5.22385763 8.22385763,5 8.5,5 Z M12.5,3 C12.7761424,3 13,3.22385763 13,3.5 C13,3.77614237 12.7761424,4 12.5,4 L1.5,4 C1.22385763,4 1,3.77614237 1,3.5 C1,3.22385763 1.22385763,3 1.5,3 L12.5,3 Z M8.5,1 C8.77614237,1 9,1.22385763 9,1.5 C9,1.77614237 8.77614237,2 8.5,2 L5.5,2 C5.22385763,2 5,1.77614237 5,1.5 C5,1.22385763 5.22385763,1 5.5,1 L8.5,1 Z"/>
</svg>
