<svg xmlns="http://www.w3.org/2000/svg" width="14" height="14" viewBox="0 0 14 14">
  <path fill="#C5CFE0" fill-rule="evenodd" d="M7.58578644,1 C7.98361117,1 8.36514204,1.15803526 8.64644661,1.43933983 L8.64644661,1.43933983 L11.5606602,4.35355339 C11.8419647,4.63485796 12,5.01638883 12,5.41421356 L12,5.41421356 L12,11.5 C12,12.3284271 11.3284271,13 10.5,13 L10.5,13 L3.5,13 C2.67157288,13 2,12.3284271 2,11.5 L2,11.5 L2,2.5 C2,1.67157288 2.67157288,1 3.5,1 L3.5,1 Z M7,2 L3.5,2 C3.22385763,2 3,2.22385763 3,2.5 L3,2.5 L3,11.5 C3,11.7761424 3.22385763,12 3.5,12 L3.5,12 L10.5,12 C10.7761424,12 11,11.7761424 11,11.5 L11,11.5 L11,6 L7.5,6 C7.25454011,6 7.05039163,5.82312484 7.00805567,5.58987563 L7,5.5 L7,2 Z M10.793,5 L8,2.207 L8,5 L10.793,5 Z"/>
</svg>
