<svg xmlns="http://www.w3.org/2000/svg" width="14" height="14" viewBox="0 0 14 14">
  <path fill="#536076" fill-rule="evenodd" d="M6.08578644,0.5 C6.48361117,0.5 6.86514204,0.658035261 7.14644661,0.939339828 L7.14644661,0.939339828 L10.0606602,3.85355339 C10.3419647,4.13485796 10.5,4.51638883 10.5,4.91421356 L10.5,4.91421356 L10.5,11 C10.5,11.8284271 9.82842712,12.5 9,12.5 L9,12.5 L2,12.5 C1.17157288,12.5 0.5,11.8284271 0.5,11 L0.5,11 L0.5,2 C0.5,1.17157288 1.17157288,0.5 2,0.5 L2,0.5 Z M5.5,1.5 L2,1.5 C1.72385763,1.5 1.5,1.72385763 1.5,2 L1.5,2 L1.5,11 C1.5,11.2761424 1.72385763,11.5 2,11.5 L2,11.5 L9,11.5 C9.27614237,11.5 9.5,11.2761424 9.5,11 L9.5,11 L9.5,5.5 L6,5.5 C5.75454011,5.5 5.55039163,5.32312484 5.50805567,5.08987563 L5.5,5 L5.5,1.5 Z M9.293,4.5 L6.5,1.707 L6.5,4.5 L9.293,4.5 Z" transform="translate(1.5 .5)"/>
</svg>
