<svg xmlns="http://www.w3.org/2000/svg" width="14" height="14" viewBox="0 0 14 14">
  <path fill="#536076" d="M5.79289322,0.5 C6.05810971,0.5 6.31246362,0.60535684 6.5,0.792893219 L6.5,0.792893219 L7.207,1.5 L11.5,1.5 C12.0128358,1.5 12.4355072,1.88604019 12.4932723,2.38337887 L12.4932723,2.38337887 L12.5,2.5 L12.5,10 C12.5,10.2761424 12.2761424,10.5 12,10.5 L12,10.5 L1,10.5 C0.723857625,10.5 0.5,10.2761424 0.5,10 L0.5,10 L0.5,1.5 C0.5,0.94771525 0.94771525,0.5 1.5,0.5 L1.5,0.5 Z M5.79289322,1.5 L1.5,1.5 L1.5,9.5 L11.5,9.5 L11.5,2.5 L7,2.5 C6.86739176,2.5 6.7402148,2.44732158 6.64644661,2.35355339 L6.64644661,2.35355339 L5.79289322,1.5 Z M4.11005746,3.5 C5.3645719,3.5 5.99594785,4.12439816 5.99594785,5.05539816 C5.99594785,5.6013036 5.86493055,6.15629965 5.265,6.34288078 C5.853,6.46888078 6.25278113,6.98211705 6.25278113,7.68211705 C6.25278113,8.70411705 5.363,9.33046621 4.222,9.33046621 L4.222,9.33046621 L2.5,9.33046621 L2.5,9.17846621 L2.51405746,3.5 Z M11.0924754,3.5 L11.0924754,4.5 L9.5,4.5 L9.5,9.00356918 L8.5,9.00356918 L8.5,4.5 L6.98293216,4.5 L6.98293216,3.5 L11.0924754,3.5 Z M4.09453335,6.95364959 L3.51619768,6.95364959 L3.51619768,8.48592441 L4.026,8.48592441 C4.82253335,8.48592441 5.19571713,8.15591402 5.19571713,7.71286373 C5.19571713,7.2311549 4.82253335,6.95364959 4.09453335,6.95364959 L4.09453335,6.95364959 Z M4.026,4.52431492 L3.51619768,4.52431492 L3.51619768,6.04274321 L4.026,6.04274321 C4.754,6.04274321 5.13576021,5.72657935 5.13576021,5.28352906 C5.13576021,4.80182024 4.754,4.52431492 4.026,4.52431492 L4.026,4.52431492 Z" transform="translate(.5 1.5)"/>
</svg>
