<svg xmlns="http://www.w3.org/2000/svg" width="14" height="14" viewBox="0 0 14 14">
  <path fill="#536076" fill-rule="evenodd" d="M5,0.5 C5.15737865,0.5 5.30557281,0.574097079 5.4,0.7 L5.4,0.7 L6.75,2.5 L11,2.5 C11.7796961,2.5 12.4204487,3.09488808 12.4931334,3.85553999 L12.4931334,3.85553999 L12.5,4 L12.5,10 C12.5,10.8284271 11.8284271,11.5 11,11.5 L11,11.5 L2,11.5 C1.17157288,11.5 0.5,10.8284271 0.5,10 L0.5,10 L0.5,2 C0.5,1.17157288 1.17157288,0.5 2,0.5 L2,0.5 Z M1.5,5.5 L1.5,10 C1.5,10.2761424 1.72385763,10.5 2,10.5 L2,10.5 L11,10.5 C11.2761424,10.5 11.5,10.2761424 11.5,10 L11.5,10 L11.5,5.5 L1.5,5.5 Z M1.5,4.5 L11.5,4.5 L11.5,4 C11.5,3.72385763 11.2761424,3.5 11,3.5 L11,3.5 L6.5,3.5 C6.34262135,3.5 6.19442719,3.42590292 6.1,3.3 L6.1,3.3 L4.75,1.5 L2,1.5 C1.72385763,1.5 1.5,1.72385763 1.5,2 L1.5,2 L1.5,4.5 Z" transform="translate(.5 .5)"/>
</svg>
