<svg xmlns="http://www.w3.org/2000/svg" width="14" height="14" viewBox="0 0 14 14">
  <path fill="#536076" fill-rule="evenodd" d="M6.38443607,7.18029872 C6.54138375,7.36902599 6.53592243,7.6390845 6.38365333,7.82077558 L6.31970128,7.88443607 C6.13097401,8.04138375 5.8609155,8.03592243 5.67922442,7.88365333 L5.61556393,7.81970128 L2.61556393,4.21224552 C2.46903218,4.03604326 2.46320271,3.78702664 2.59034401,3.60574076 L2.65295167,3.53260334 L5.65295167,0.640059094 C5.85174154,0.448389593 6.1682714,0.454161795 6.35994091,0.652951668 C6.5303138,0.829653778 6.54468336,1.09938502 6.40615675,1.2917594 L6.34704833,1.35994091 L4.127,3.49999948 L8,3.5 C10.3439487,3.5 12,5.59717393 12,8 C12,10.3321547 10.4399309,12.3763724 8.20500917,12.4946031 L8,12.5 L1,12.5 C0.723857625,12.5 0.5,12.2761424 0.5,12 C0.5,11.7545401 0.676875161,11.5503916 0.910124368,11.5080557 L1,11.5 L8,11.5 C9.73296343,11.5 11,9.89546271 11,8 C11,6.16989807 9.81883868,4.61100367 8.17757719,4.50566982 L8,4.5 L4.155,4.49999948 L6.38443607,7.18029872 Z" transform="translate(1 .5)"/>
</svg>
