<svg xmlns="http://www.w3.org/2000/svg" width="16" height="16" viewBox="0 0 16 16">
  <path fill="#536076" fill-rule="evenodd" d="M6,1 L10,1 C10.5522847,1 11,1.44771525 11,2 L11,9 L11,9 L13.7267318,9 C14.0028742,9 14.2267318,9.22385763 14.2267318,9.5 C14.2267318,9.6390344 14.1688409,9.77179063 14.0669574,9.86639675 L8.6804511,14.8681526 C8.29676996,15.2244279 7.70323004,15.2244279 7.3195489,14.8681526 L1.93304265,9.86639675 C1.73068731,9.67849536 1.71897007,9.36212979 1.90687145,9.15977445 C2.00147756,9.05789095 2.1342338,9 2.2732682,9 L5,9 L5,9 L5,2 C5,1.44771525 5.44771525,1 6,1 Z"/>
</svg>
